 <svg version="1.0" xmlns="http://www.w3.org/2000/svg" width="700.000000pt" height="103.000000pt" viewBox="0 0 700.000000 103.000000" preserveAspectRatio="xMidYMid meet">
<metadata>
Created by potrace 1.12, written by Peter Selinger 2001-2015
</metadata>
<g transform="translate(0.000000,103.000000) scale(0.100000,-0.100000)" fill="#000000" stroke="none">
<path d="M1849 783 c-1 -10 -1 -21 0 -25 0 -5 -3 -8 -9 -8 -5 0 -10 -8 -10
-17 0 -14 2 -15 9 -4 6 10 10 10 16 1 9 -15 -3 -60 -16 -60 -8 0 -7 5 1 15 7
8 8 15 2 15 -5 0 -15 -7 -22 -15 -8 -10 -9 -15 -1 -15 7 0 8 -8 1 -26 -8 -20
-7 -25 2 -21 7 2 12 12 10 22 -2 10 2 15 9 13 8 -3 13 -20 12 -41 0 -20 3 -37
7 -37 5 0 7 -8 5 -17 -2 -10 -4 -18 -6 -18 -8 0 -4 -93 5 -104 8 -11 8 -15 -2
-18 -6 -3 -10 -9 -7 -14 4 -5 0 -6 -8 -4 -7 3 -22 -5 -33 -17 -10 -12 -12 -17
-4 -11 17 13 60 14 60 1 0 -4 -6 -8 -12 -8 -10 0 -10 -2 -1 -8 8 -5 1 -17 -19
-37 -17 -17 -28 -24 -24 -17 4 6 3 12 -2 12 -6 0 -8 10 -5 23 3 14 -2 10 -15
-13 -14 -25 -26 -34 -42 -33 -11 2 -19 -1 -15 -6 3 -5 1 -12 -5 -16 -5 -3 -10
3 -10 13 0 19 -27 38 -38 27 -3 -3 0 -5 7 -5 7 0 9 -5 5 -12 -4 -7 -3 -8 4 -4
7 4 12 3 12 -2 0 -6 -7 -12 -15 -16 -8 -3 -15 0 -15 6 0 7 -5 6 -15 -2 -18
-15 -19 -7 -4 22 8 15 8 19 0 14 -6 -4 -11 0 -11 9 0 9 -5 13 -10 10 -8 -5 -7
-12 2 -23 11 -13 11 -15 -2 -10 -8 3 -20 0 -27 -7 -16 -17 53 -55 101 -55 39
0 96 24 96 40 0 5 7 7 15 4 8 -3 13 -11 12 -17 -1 -7 11 -12 28 -12 l30 0 3
258 c2 214 0 261 -12 273 -20 19 -36 18 -37 -3z m18 -35 c-3 -8 -6 -5 -6 6 -1
11 2 17 5 13 3 -3 4 -12 1 -19z m-3 -432 c-6 -16 -34 -30 -34 -18 0 10 22 32
32 32 4 0 5 -6 2 -14z"></path>
<path d="M373 773 c-13 -9 -23 -22 -23 -29 0 -12 -4 -12 -21 -2 -17 10 -23 10
-26 1 -3 -7 -10 -13 -17 -13 -7 0 -25 -13 -39 -30 -29 -32 -35 -46 -14 -34 9
6 9 5 0 -7 -12 -15 -13 -19 -13 -44 0 -8 -7 -15 -15 -15 -8 0 -15 -5 -15 -11
0 -5 4 -8 9 -4 9 5 9 -2 -4 -64 -2 -12 -10 -30 -17 -40 -10 -13 -10 -14 2 -3
24 20 34 13 14 -10 -10 -12 -13 -18 -6 -14 8 5 12 0 12 -14 0 -15 -5 -20 -15
-17 -19 8 -30 -12 -15 -26 10 -9 11 -9 6 1 -4 6 -3 12 3 12 5 0 17 3 27 7 12
4 15 3 10 -5 -4 -8 2 -16 16 -21 21 -8 21 -10 4 -16 -11 -5 -21 -3 -27 6 -6
11 -11 11 -21 1 -9 -9 -9 -12 5 -12 10 0 14 -5 11 -15 -4 -10 0 -15 11 -15 9
0 13 4 10 10 -3 6 -1 10 4 10 6 0 11 -6 11 -12 0 -8 7 -5 15 6 11 14 15 16 15
5 0 -8 -9 -20 -21 -27 -15 -10 -19 -10 -14 -1 5 8 4 10 -3 5 -19 -12 -2 -33
51 -62 46 -26 62 -29 137 -28 66 0 97 5 138 23 l52 23 0 113 0 113 -25 0 c-15
0 -25 -6 -25 -14 0 -8 -6 -14 -12 -14 -8 -1 -6 -6 5 -14 16 -13 16 -14 -5 -29
-23 -15 -23 -15 7 -10 25 5 28 3 18 -8 -16 -16 -17 -33 -2 -23 8 4 8 1 1 -13
-6 -10 -9 -33 -8 -51 1 -21 -1 -29 -7 -23 -11 11 -46 -3 -59 -23 -5 -7 -8 -6
-8 4 -1 9 -6 5 -15 -10 -8 -14 -14 -19 -15 -12 0 7 -4 10 -10 7 -6 -3 -10 4
-10 17 0 18 -2 20 -9 8 -6 -8 -7 -18 -5 -22 3 -4 0 -8 -6 -8 -7 0 -9 8 -5 20
9 29 -4 25 -15 -5 -5 -14 -15 -25 -22 -25 -9 0 -9 3 0 12 22 22 12 32 -11 10
-13 -12 -30 -22 -38 -22 -12 0 -12 2 1 11 12 8 8 9 -15 5 l-30 -5 28 12 c15 6
27 15 27 20 0 4 -5 5 -10 2 -6 -3 -13 1 -16 10 -4 9 -13 14 -20 11 -8 -3 -14
1 -14 8 0 7 -8 28 -17 47 -11 20 -19 64 -21 109 -3 63 0 82 20 119 13 25 35
54 50 65 38 27 132 33 194 12 25 -8 51 -13 55 -10 5 3 8 0 7 -7 -2 -7 5 -15
15 -17 27 -6 23 53 -5 72 -31 22 -39 20 -34 -8 3 -19 1 -23 -13 -19 -13 3 -16
13 -14 36 2 19 0 26 -4 17 -5 -8 -25 -16 -45 -18 -35 -3 -38 -1 -39 25 0 16
-3 22 -6 13 -9 -21 -25 -35 -48 -38 -18 -2 -17 0 5 17 30 24 24 35 -7 14z
m-103 -77 c0 -3 -4 -8 -10 -11 -5 -3 -10 -1 -10 4 0 6 5 11 10 11 6 0 10 -2
10 -4z m-45 -256 c3 -5 1 -10 -4 -10 -6 0 -11 5 -11 10 0 6 2 10 4 10 3 0 8
-4 11 -10z m75 -123 c0 -5 -6 -7 -14 -4 -8 3 -17 1 -19 -6 -2 -7 -8 -8 -13 -4
-10 9 10 24 31 24 8 0 15 -5 15 -10z m240 -17 c-8 -5 -19 -10 -25 -10 -5 0 -3
5 5 10 8 5 20 10 25 10 6 0 3 -5 -5 -10z"></path>
<path d="M3228 778 c-5 -44 -4 -98 4 -98 4 0 8 8 9 18 0 11 2 12 6 4 6 -14
-15 -44 -27 -37 -4 2 -6 -7 -4 -21 1 -15 -4 -28 -12 -31 -19 -7 -18 -23 2 -23
8 0 13 4 10 9 -3 5 1 14 9 21 8 7 13 16 10 20 -3 5 -1 11 4 15 6 3 9 -7 8 -24
-1 -16 -5 -27 -9 -24 -5 2 -8 -3 -8 -12 0 -11 5 -15 14 -12 10 4 13 1 9 -9 -4
-10 0 -12 11 -8 13 5 16 23 16 101 0 85 -2 94 -17 91 -11 -2 -17 -11 -15 -21
2 -9 -2 -17 -8 -17 -7 0 -9 12 -4 35 3 19 3 35 0 35 -3 0 -7 -6 -8 -12z"></path>
<path d="M5080 780 c0 -5 5 -10 11 -10 5 0 7 5 4 10 -3 6 -8 10 -11 10 -2 0
-4 -4 -4 -10z"></path>
<path d="M5420 778 c0 -17 10 -22 35 -19 6 1 1 -6 -9 -14 -18 -14 -15 -19 9
-16 6 1 -1 -8 -14 -19 -21 -18 -21 -20 -5 -21 11 0 14 -3 7 -6 -7 -2 -13 -9
-13 -14 0 -6 5 -7 10 -4 6 3 10 1 10 -5 0 -6 -10 -15 -22 -20 -14 -5 -17 -9
-8 -10 12 0 11 -4 -4 -15 -11 -8 -15 -15 -8 -15 6 0 20 10 32 22 26 28 26 8 0
-22 -26 -29 -25 -34 3 -27 21 6 21 6 -3 -14 l-25 -20 25 6 c20 6 23 5 13 -6
-15 -16 -17 -33 -3 -24 20 12 9 -7 -17 -31 -24 -21 -25 -24 -5 -14 18 9 22 8
22 -4 0 -8 -5 -18 -12 -22 -7 -4 -8 -3 -4 4 11 18 0 14 -15 -5 -13 -15 -11
-16 14 -11 15 3 27 1 27 -3 0 -5 -8 -9 -17 -9 -15 0 -14 -2 3 -16 10 -8 14
-13 8 -10 -7 3 -14 0 -17 -8 -3 -8 1 -17 8 -20 16 -6 9 -36 -7 -36 -6 0 -5 6
2 15 9 11 9 15 1 15 -6 0 -14 -13 -17 -30 -6 -29 -27 -40 -39 -20 -3 6 -12 10
-18 10 -7 0 -6 -4 3 -10 13 -9 13 -10 0 -10 -13 0 -13 -1 0 -10 8 -5 11 -10 6
-10 -5 0 -3 -7 4 -15 8 -9 30 -15 56 -15 l44 0 1 63 c4 344 2 449 -11 457 -8
5 -18 6 -23 3 -5 -3 -13 1 -18 8 -7 11 -9 10 -9 -3z m37 -493 c0 -8 -4 -12 -9
-9 -5 3 -6 10 -3 15 9 13 12 11 12 -6z"></path>
<path d="M330 770 c-9 -6 -10 -10 -3 -10 6 0 15 5 18 10 8 12 4 12 -15 0z"></path>
<path d="M2197 766 c-4 -9 -13 -13 -22 -10 -19 8 -19 -6 1 -34 13 -19 24 -22
88 -22 81 0 90 7 77 56 -6 22 -9 25 -14 12 -4 -12 -14 -16 -34 -12 -20 3 -24
2 -14 -5 8 -5 23 -8 33 -6 10 2 18 1 18 -3 0 -4 -26 -8 -57 -8 -40 -1 -51 1
-40 8 9 5 17 14 17 20 0 7 -5 7 -14 -1 -11 -10 -16 -9 -24 5 -8 15 -10 15 -15
0z"></path>
<path d="M2354 768 c-3 -4 9 -8 25 -8 17 0 31 -5 31 -11 0 -16 -29 -41 -40
-34 -5 3 -10 1 -10 -4 0 -6 9 -11 20 -11 11 0 20 5 20 12 0 6 2 9 5 6 3 -3 -1
-18 -9 -33 -8 -16 -13 -32 -10 -37 3 -4 -2 -18 -10 -30 -20 -28 -20 -35 -1
-35 8 0 12 4 9 9 -3 4 2 18 10 30 9 12 16 17 16 11 0 -7 -5 -15 -10 -18 -6 -4
-8 -15 -5 -25 6 -20 -15 -32 -42 -24 -17 5 -17 5 0 -6 10 -6 14 -16 10 -23 -5
-8 -2 -8 9 1 24 19 31 -12 8 -33 -11 -10 -17 -22 -14 -26 3 -5 0 -9 -6 -9 -6
0 -8 -4 -5 -10 3 -5 1 -10 -4 -10 -6 0 -11 -5 -11 -11 0 -5 3 -8 8 -6 4 3 17
1 29 -4 16 -6 20 -13 16 -30 -5 -17 -3 -20 7 -14 9 5 11 4 6 -4 -4 -6 -11 -9
-16 -6 -5 3 -8 -3 -7 -14 1 -15 4 -17 14 -9 27 22 13 -14 -17 -43 -36 -37 -30
-59 16 -59 l34 0 1 98 c1 53 1 154 -1 225 l-2 127 91 0 91 0 0 26 c0 14 -7 32
-15 40 -13 14 -15 13 -15 -5 0 -12 -4 -21 -9 -21 -5 0 -7 10 -4 23 4 21 4 21
-9 -2 -7 -14 -20 -27 -28 -29 -13 -5 -13 -3 -2 11 8 9 10 22 6 29 -5 8 -12 3
-21 -17 l-14 -30 6 29 c6 27 5 28 -12 16 -10 -8 -26 -23 -36 -35 -17 -20 -17
-20 -11 0 4 11 12 27 18 35 6 8 0 6 -13 -5 -20 -17 -24 -18 -34 -5 -13 16 -55
22 -63 8z m50 -289 c-8 -14 -21 -11 -21 5 0 8 6 12 14 9 7 -3 10 -9 7 -14z
m-14 -23 c0 -3 -4 -8 -10 -11 -5 -3 -10 -1 -10 4 0 6 5 11 10 11 6 0 10 -2 10
-4z"></path>
<path d="M3547 769 c-9 -6 -17 -18 -17 -29 0 -10 -6 -21 -12 -23 -10 -4 -10
-6 0 -6 7 -1 17 10 22 24 5 14 12 25 15 25 8 0 -5 -49 -20 -82 -13 -27 -12
-28 13 -28 l27 0 -30 -21 c-24 -16 -26 -19 -7 -14 16 5 22 2 22 -9 0 -9 -6
-16 -12 -16 -9 0 -8 -4 2 -10 11 -7 12 -10 2 -10 -8 0 -12 -6 -9 -12 2 -7 0
-23 -4 -35 -10 -27 5 -31 20 -5 10 16 10 16 11 -1 0 -10 -7 -20 -15 -23 -8 -4
-13 -10 -10 -14 3 -5 -5 -16 -17 -24 -12 -9 -17 -16 -11 -16 7 0 15 4 18 10 9
15 25 12 25 -4 0 -8 -6 -16 -14 -19 -7 -3 -16 -18 -19 -34 l-5 -28 18 23 c10
12 20 22 23 22 8 0 -1 -53 -10 -59 -11 -8 -43 -58 -43 -68 0 -4 11 8 25 27 21
29 25 31 25 13 0 -11 -7 -23 -15 -27 -8 -3 -15 -15 -15 -26 0 -18 5 -21 33
-18 l32 3 3 252 c2 234 1 253 -16 262 -11 6 -24 6 -35 0z m23 -69 c0 -16 -4
-30 -8 -30 -5 0 -7 14 -4 30 2 17 6 30 8 30 2 0 4 -13 4 -30z"></path>
<path d="M5145 752 c11 -22 21 -32 31 -28 9 4 14 -1 14 -15 0 -15 5 -19 15
-15 20 7 19 -4 -2 -20 -29 -22 -46 -17 -41 11 4 17 1 25 -8 25 -14 0 -19 -17
-16 -55 1 -12 -1 -15 -5 -9 -6 8 -14 3 -28 -15 -10 -14 -12 -21 -4 -14 21 17
47 0 31 -20 -7 -7 -9 -17 -5 -20 3 -4 1 -12 -5 -19 -7 -9 -6 -24 3 -50 10 -31
10 -40 -1 -49 -8 -6 -14 -18 -14 -26 0 -13 3 -13 15 -3 9 8 15 9 15 2 0 -6 -5
-14 -10 -17 -6 -4 -8 -10 -5 -15 3 -5 0 -12 -6 -16 -8 -4 -9 -3 -5 4 4 7 3 12
-3 12 -5 0 -9 -8 -9 -17 0 -10 -1 -25 -4 -33 -3 -8 -3 -12 -1 -7 7 10 33 9 33
-2 0 -6 -4 -13 -10 -16 -5 -3 -10 -15 -10 -26 0 -12 -4 -17 -11 -14 -6 4 -8
14 -4 24 4 12 3 13 -5 5 -8 -8 -8 -18 1 -37 15 -32 63 -38 74 -10 3 10 5 98 4
196 -1 97 1 180 5 184 3 3 6 1 6 -5 0 -7 4 -12 10 -12 5 0 7 6 4 14 -6 16 22
30 31 16 4 -6 1 -10 -4 -10 -6 0 -11 -4 -11 -9 0 -5 9 -7 20 -4 11 3 20 7 20
9 0 19 -63 124 -75 124 -9 0 -12 -6 -9 -17 4 -12 -1 -10 -16 7 l-21 25 16 -33z
m-5 -382 c0 -5 -5 -10 -11 -10 -5 0 -7 5 -4 10 3 6 8 10 11 10 2 0 4 -4 4 -10z
m-4 -76 c-4 -9 -9 -15 -11 -12 -3 3 -3 13 1 22 4 9 9 15 11 12 3 -3 3 -13 -1
-22z"></path>
<path d="M5098 729 c-10 -5 -18 -18 -17 -27 0 -14 2 -14 6 -2 4 8 13 20 22 27
19 15 13 16 -11 2z"></path>
<path d="M5400 725 c0 -8 2 -15 4 -15 2 0 6 7 10 15 3 8 1 15 -4 15 -6 0 -10
-7 -10 -15z"></path>
<path d="M866 657 c-4 -9 -8 -25 -12 -34 -4 -13 -7 -14 -13 -5 -13 21 -55 4
-97 -40 -32 -33 -34 -37 -11 -23 15 9 27 21 27 26 0 5 5 9 11 9 6 0 17 7 25
15 9 8 21 15 27 15 7 0 3 -7 -8 -16 -59 -44 -85 -67 -85 -76 0 -6 8 -4 18 3 9
7 7 2 -5 -12 -17 -19 -20 -28 -11 -37 8 -8 8 -15 -2 -27 -7 -8 -8 -15 -2 -15
21 0 22 -35 2 -63 -12 -16 -19 -31 -16 -34 3 -4 6 0 6 7 0 7 3 10 8 6 7 -8 8
-12 11 -40 1 -8 11 -12 26 -11 16 2 25 -2 25 -11 0 -9 -6 -11 -17 -7 -15 6
-16 4 -5 -9 19 -23 96 -42 143 -34 89 14 142 85 145 194 1 49 -4 75 -22 113
-13 27 -29 49 -35 49 -6 0 -9 -6 -6 -14 3 -7 1 -18 -5 -24 -8 -8 -8 -16 2 -27
11 -14 7 -19 -13 -16 -5 1 -6 -3 -2 -9 3 -6 11 -8 16 -5 8 6 13 -8 10 -30 -1
-5 6 -1 14 9 14 18 15 18 15 2 0 -10 -9 -20 -20 -23 -11 -3 -20 -13 -20 -22 0
-14 2 -14 10 -1 7 11 10 11 10 2 0 -7 5 -10 12 -6 7 4 8 3 4 -4 -4 -7 -15 -12
-24 -12 -15 0 -15 -2 -2 -10 8 -5 10 -10 5 -10 -6 0 -16 -9 -23 -21 -8 -12 -9
-18 -3 -14 17 10 13 -11 -4 -25 -8 -7 -15 -18 -15 -24 0 -6 -9 -17 -20 -24
-11 -7 -20 -8 -20 -3 0 6 8 15 18 20 9 6 12 11 5 11 -6 0 -14 -4 -18 -10 -3
-5 -13 -7 -23 -4 -13 5 -14 4 -3 -4 10 -7 5 -11 -18 -14 -31 -4 -43 6 -18 15
6 3 -3 6 -20 6 -18 1 -33 -3 -33 -9 0 -5 7 -7 15 -4 8 4 15 1 15 -7 0 -7 -3
-9 -7 -6 -3 4 -12 2 -19 -4 -9 -7 -12 -3 -10 18 1 23 -2 28 -19 28 -11 0 -21
4 -22 9 -1 5 -7 12 -13 16 -9 6 -10 12 -1 26 11 18 11 18 9 -1 -2 -13 2 -19
11 -17 8 2 11 -3 8 -13 -4 -8 -3 -15 2 -15 17 0 18 12 4 52 -24 69 2 174 48
199 12 6 36 9 55 7 21 -2 35 1 38 9 3 7 1 13 -4 13 -6 0 -10 5 -10 11 0 5 5 7
10 4 6 -3 10 0 11 7 0 7 5 4 10 -7 8 -19 9 -19 6 -1 -1 14 -10 20 -31 21 -15
1 -32 8 -36 16 -7 11 -10 10 -14 -4z m25 -21 c5 3 9 -2 9 -10 0 -9 -4 -16 -10
-16 -5 0 -10 2 -10 4 0 2 -2 10 -3 18 -2 7 -2 10 0 5 3 -4 9 -5 14 -1z"></path>
<path d="M1287 663 c-4 -3 -7 -11 -7 -17 0 -6 5 -5 12 2 6 6 9 14 7 17 -3 3
-9 2 -12 -2z"></path>
<path d="M6694 643 c-3 -18 -10 -33 -15 -33 -5 0 -5 8 -2 18 6 14 4 15 -9 5
-8 -7 -17 -10 -20 -7 -3 3 -16 -9 -28 -25 -12 -17 -18 -31 -14 -31 3 0 2 -6
-3 -12 -18 -24 -13 -65 11 -91 14 -15 48 -33 82 -42 33 -9 67 -19 77 -21 12
-4 17 0 17 16 0 12 4 19 9 16 5 -4 12 0 14 6 3 8 6 6 6 -4 1 -10 -3 -18 -9
-18 -5 0 -10 -5 -10 -11 0 -5 5 -7 10 -4 14 9 12 -18 -2 -35 -11 -12 -10 -12
5 -1 9 7 17 20 17 27 0 8 4 14 8 14 5 0 7 -13 4 -30 -2 -16 -8 -27 -13 -24 -5
3 -11 -2 -14 -10 -17 -55 -15 -53 -30 -33 -13 18 -14 18 -25 -3 -6 -12 -9 -24
-6 -27 3 -3 8 2 12 11 6 15 24 13 24 -3 0 -13 -39 -20 -47 -9 -4 7 -12 4 -21
-8 -14 -18 -14 -18 -9 4 4 15 1 22 -6 19 -7 -3 -11 -9 -10 -15 2 -8 -5 -8 -24
-1 -20 7 -29 6 -36 -3 -6 -9 -7 -6 -4 9 3 13 1 26 -4 29 -5 3 -9 -2 -9 -10 0
-8 -5 -18 -12 -22 -7 -4 -8 -3 -4 4 4 7 1 12 -8 12 -9 0 -16 -3 -16 -7 1 -44
150 -70 224 -39 54 22 76 53 76 105 0 56 -10 74 -35 65 -13 -5 -16 -3 -13 7 5
14 -18 38 -37 39 -5 0 -3 -5 5 -11 12 -9 11 -10 -8 -6 -12 3 -20 2 -17 -3 3
-4 -4 -10 -14 -13 -12 -3 -22 1 -25 10 -3 8 -11 11 -17 7 -7 -4 -7 1 1 16 6
12 9 24 6 27 -3 3 -8 -1 -12 -10 -3 -9 -14 -14 -25 -12 -24 5 -25 -12 -1 -18
15 -4 15 -5 0 -6 -23 -1 -31 15 -30 63 2 60 30 80 102 73 30 -3 65 -8 78 -12
19 -7 22 -4 22 23 0 18 -6 32 -15 36 -11 4 -15 0 -13 -11 2 -9 -5 -17 -14 -18
-14 -3 -16 0 -8 15 15 29 12 37 -5 13 -12 -17 -22 -21 -51 -17 -42 5 -54 11
-54 26 0 7 5 6 15 -2 15 -12 35 -6 35 12 0 7 -5 6 -14 -1 -11 -10 -17 -8 -25
6 -9 16 -11 14 -17 -14z m-51 -43 c-3 -12 -8 -19 -11 -16 -5 6 5 36 12 36 2 0
2 -9 -1 -20z m-17 -56 c-3 -16 0 -24 9 -24 9 0 12 -6 9 -15 -4 -8 -14 -15 -23
-15 -11 0 -16 8 -15 30 1 17 3 33 4 38 1 4 2 11 1 15 -1 5 3 6 9 2 6 -3 8 -17
6 -31z"></path>
<path d="M1629 643 c-13 -16 -12 -17 4 -4 16 13 21 21 13 21 -2 0 -10 -8 -17
-17z"></path>
<path d="M3843 638 c-31 -19 -33 -19 -34 -1 0 14 -3 12 -11 -7 -6 -14 -10 -29
-9 -34 1 -5 -6 -3 -15 5 -16 12 -17 12 -12 -2 4 -11 -2 -21 -17 -29 -14 -8
-30 -31 -39 -57 -8 -24 -11 -41 -6 -38 5 3 11 19 15 35 4 17 16 35 28 41 20 9
20 9 5 -4 -16 -13 -18 -43 -4 -66 3 -5 -1 -14 -9 -21 -8 -7 -12 -17 -8 -23 3
-5 2 -7 -3 -4 -6 3 -16 2 -24 -4 -12 -7 -12 -9 3 -9 12 0 16 -4 11 -12 -5 -9
-2 -9 9 1 20 16 23 1 5 -18 -11 -10 -9 -11 7 -6 18 6 18 5 -2 -13 -13 -11 -23
-22 -23 -25 0 -10 34 0 38 11 2 6 10 8 18 5 12 -4 10 -9 -7 -24 -12 -11 -19
-22 -15 -26 4 -4 16 3 26 17 14 18 16 29 9 43 -6 10 -9 25 -7 34 3 14 23 17
143 19 l140 3 -2 45 c-2 57 -32 121 -55 120 -37 -3 -39 -4 -24 -20 9 -8 13
-21 9 -27 -3 -7 -2 -8 3 -4 5 5 9 13 9 18 0 5 4 8 10 7 17 -5 12 -41 -8 -61
-15 -15 -16 -19 -5 -14 9 3 19 0 21 -8 6 -15 -1 -25 -17 -25 -6 0 -4 5 4 10
13 8 12 10 -3 10 -10 0 -29 -7 -43 -16 -13 -9 -28 -14 -32 -10 -3 4 0 11 7 15
9 6 10 11 2 15 -6 4 -14 1 -17 -8 -3 -8 -12 -17 -20 -20 -8 -3 -12 -2 -9 4 3
5 -3 14 -14 20 -12 6 -22 6 -26 1 -3 -5 3 -12 12 -15 10 -2 3 -3 -14 -1 -20 2
-33 -1 -33 -8 0 -7 -4 -6 -9 3 -6 8 -8 17 -5 21 2 4 -3 9 -11 13 -8 3 -17 0
-21 -6 -4 -7 -3 -8 4 -4 7 4 12 3 12 -3 0 -17 -18 -22 -24 -6 -3 9 2 24 12 34
9 11 25 31 35 45 20 29 77 44 116 30 21 -8 30 -5 48 13 20 20 17 28 -9 24 -5
0 -8 6 -8 14 0 19 -14 19 -29 1 -7 -9 -8 -17 -2 -20 5 -3 12 0 14 6 3 7 6 2 6
-11 1 -21 -1 -22 -16 -10 -10 7 -19 14 -21 15 -2 1 1 12 8 23 6 12 8 21 5 21
-9 0 -31 -23 -38 -40 -5 -13 -6 -13 -6 1 -1 8 4 20 11 27 18 18 -3 13 -39 -10z
m17 -12 c0 -3 -4 -8 -10 -11 -5 -3 -10 -1 -10 4 0 6 5 11 10 11 6 0 10 -2 10
-4z"></path>
<path d="M4264 643 c0 -10 -7 -18 -19 -20 -11 -1 -14 0 -7 3 19 9 14 20 -8 20
-11 0 -20 -4 -20 -8 0 -4 -10 -8 -22 -8 -19 0 -20 -2 -8 -11 12 -9 11 -10 -7
-6 -16 4 -23 0 -23 -10 0 -8 4 -11 10 -8 6 4 7 -1 3 -11 -5 -14 -2 -16 23 -10
72 17 134 18 157 3 22 -14 25 -14 40 12 15 26 15 28 -3 44 -11 9 -20 13 -20 7
0 -5 5 -12 10 -15 15 -10 12 -32 -6 -39 -12 -4 -15 -2 -11 9 4 8 2 17 -3 20
-6 4 -10 1 -10 -4 0 -6 -5 -11 -11 -11 -5 0 -7 5 -3 12 5 8 0 9 -14 6 -12 -4
-20 -2 -16 3 3 5 14 9 25 9 10 0 19 7 19 16 0 14 -2 14 -22 0 -28 -20 -38 -20
-38 -1 0 8 -4 15 -9 15 -5 0 -8 -8 -7 -17z"></path>
<path d="M4710 646 c0 -12 -21 -36 -53 -63 -12 -9 -14 -7 -14 13 0 13 4 24 9
24 5 0 6 -4 3 -10 -15 -24 15 -7 30 18 18 27 18 27 -1 10 -13 -12 -24 -14 -34
-8 -22 14 -52 12 -47 -2 2 -7 9 -12 15 -11 13 3 7 -36 -8 -51 -6 -6 -6 -14 1
-22 13 -16 3 -34 -19 -34 -13 -1 -11 -4 7 -14 15 -8 20 -16 12 -20 -6 -4 -11
-1 -11 6 0 9 -3 9 -10 -2 -15 -23 -12 -27 14 -25 18 2 23 -1 19 -11 -3 -8 -9
-14 -14 -14 -5 0 -9 -9 -9 -21 0 -11 -4 -18 -9 -14 -5 3 -12 1 -15 -4 -4 -5 5
-8 19 -7 13 2 22 -1 19 -5 -3 -5 0 -9 6 -9 6 0 8 -5 4 -11 -4 -8 -9 -7 -15 2
-6 10 -9 6 -9 -13 0 -14 6 -29 13 -31 7 -4 4 -8 -10 -12 -45 -14 -29 -60 19
-53 22 3 23 7 28 133 6 168 21 196 107 199 44 1 48 4 51 29 3 22 -1 27 -17 27
-12 0 -21 3 -21 8 0 4 -13 8 -30 8 -17 1 -30 -3 -30 -10z m35 -18 c-3 -8 -12
-15 -20 -15 -12 0 -11 4 3 17 20 20 25 19 17 -2z m30 -8 c-3 -5 -11 -10 -16
-10 -6 0 -7 5 -4 10 3 6 11 10 16 10 6 0 7 -4 4 -10z"></path>
<path d="M5796 652 c-3 -5 -20 -7 -38 -5 -18 1 -27 0 -20 -3 23 -11 12 -24
-15 -19 -15 2 -30 -1 -34 -7 -6 -9 -12 -8 -25 3 -10 8 -15 9 -11 2 5 -7 -1
-18 -13 -25 -11 -7 -20 -16 -20 -21 0 -4 5 -5 10 -2 17 11 11 -17 -7 -31 -17
-13 -17 -14 1 -7 15 5 17 3 10 -8 -12 -20 -14 -40 -3 -33 5 3 9 -6 9 -20 0
-14 -5 -28 -12 -32 -8 -5 -9 0 -6 14 4 13 2 20 -4 16 -5 -3 -8 -18 -7 -32 2
-15 -1 -34 -6 -42 -18 -29 -13 -36 23 -32 25 3 33 1 27 -7 -4 -7 -14 -10 -22
-6 -13 4 -14 3 -3 -10 11 -13 10 -14 -4 -9 -9 3 -16 1 -16 -5 0 -16 21 -13 42
6 27 24 33 9 6 -17 l-23 -21 23 -20 c49 -39 168 -49 246 -20 30 12 37 55 10
65 -8 3 -12 2 -9 -4 3 -6 -2 -11 -12 -12 -10 0 -23 -2 -30 -2 -6 -1 -15 -5
-19 -9 -12 -11 -26 -8 -18 5 4 7 3 8 -5 4 -6 -4 -8 -12 -5 -18 5 -7 -2 -9 -19
-6 -15 3 -24 1 -21 -3 3 -5 1 -9 -5 -9 -5 0 -12 6 -14 13 -4 9 -6 9 -6 0 -1
-7 -8 -13 -18 -13 -14 0 -14 2 2 20 10 11 23 17 29 13 6 -3 6 0 -1 7 -11 11
-17 10 -38 -10 -14 -13 -28 -20 -32 -17 -3 4 -3 7 1 7 4 0 2 9 -4 20 -8 15 -8
20 1 20 8 0 7 6 -4 18 -8 9 -17 31 -19 47 l-3 30 130 0 c72 0 136 4 143 8 16
11 15 44 -4 100 -18 54 -52 91 -40 45 4 -18 2 -28 -5 -28 -6 0 -3 -7 5 -16 9
-8 16 -19 16 -22 0 -17 -38 -38 -74 -40 -33 -2 -38 0 -32 15 6 17 5 17 -7 1
-8 -10 -31 -20 -53 -23 -21 -3 -45 -8 -51 -10 -8 -3 -13 5 -13 20 0 14 -5 25
-11 25 -5 0 -7 -4 -4 -10 3 -5 2 -18 -4 -27 -18 -33 -7 29 12 64 29 55 97 76
158 49 10 -5 16 -2 16 8 0 8 -4 13 -9 10 -4 -3 -13 -2 -20 2 -8 5 -6 10 8 16
14 6 11 7 -13 5 -38 -4 -40 -1 -16 25 9 10 13 18 10 18 -3 0 -8 -4 -11 -8z
m123 -195 c0 -8 -2 -8 -6 1 -4 10 -8 10 -21 0 -15 -12 -16 -11 -3 4 14 19 32
15 30 -5z m-52 -3 c-3 -3 -12 -4 -19 -1 -8 3 -5 6 6 6 11 1 17 -2 13 -5z
m-227 -34 c0 -5 -2 -10 -4 -10 -3 0 -8 5 -11 10 -3 6 -1 10 4 10 6 0 11 -4 11
-10z m-5 -30 c-3 -5 -13 -10 -21 -10 -8 0 -12 5 -9 10 3 6 13 10 21 10 8 0 12
-4 9 -10z"></path>
<path d="M6474 648 c2 -7 -8 -23 -21 -36 -14 -12 -23 -28 -20 -35 2 -6 11 0
21 16 10 15 23 27 29 27 5 0 2 -9 -8 -20 -14 -15 -15 -20 -4 -20 8 0 1 -9 -14
-19 -16 -10 -24 -20 -17 -23 6 -2 8 -11 5 -20 -4 -9 -13 -14 -21 -11 -17 6
-19 -20 -3 -48 10 -19 9 -20 -13 -9 -23 11 -23 11 -3 -7 17 -15 19 -23 10 -48
-6 -16 -16 -40 -22 -51 -7 -12 -10 -24 -7 -27 3 -3 1 -14 -5 -24 -6 -10 -11
-13 -11 -6 0 6 -9 9 -22 6 -20 -5 -21 -4 -8 8 9 8 22 22 29 32 12 15 12 17 -2
11 -8 -3 -18 -12 -21 -20 -3 -9 -10 -12 -16 -9 -5 3 -10 -2 -10 -13 0 -30 34
-54 70 -50 32 3 33 5 60 98 46 163 71 270 65 280 -3 6 -12 10 -20 10 -7 0 -16
5 -18 10 -3 6 -4 5 -3 -2z m-27 -178 c2 -18 0 -18 -13 -6 -17 18 -18 37 -1 30
7 -2 13 -13 14 -24z"></path>
<path d="M169 633 c-13 -17 -13 -17 6 -3 11 8 22 16 24 17 2 2 0 3 -6 3 -6 0
-17 -8 -24 -17z"></path>
<path d="M1229 621 c-31 -33 -63 -55 -38 -25 17 20 15 44 -3 44 -6 0 -6 -6 2
-15 8 -9 8 -15 2 -15 -6 0 -14 -10 -18 -22 -3 -13 -15 -35 -26 -50 -15 -22
-16 -27 -4 -22 9 3 16 12 16 20 0 8 4 14 9 14 15 0 6 -29 -15 -46 -13 -11 -14
-14 -3 -11 9 3 16 -1 16 -9 0 -7 -4 -11 -9 -8 -4 3 -8 -2 -8 -11 0 -9 -5 -26
-11 -37 -9 -17 -13 -18 -21 -7 -8 12 -9 12 -6 0 2 -8 15 -15 29 -17 13 -1 18
0 11 2 -13 6 -7 24 8 24 10 0 8 -20 -4 -39 -7 -11 -5 -13 8 -8 9 4 15 3 11 -2
-3 -5 1 -12 7 -15 7 -3 4 -4 -7 -3 -14 1 -19 -4 -19 -22 0 -28 19 -39 28 -16
3 9 2 13 -4 10 -6 -3 -10 -1 -10 5 0 6 10 8 27 4 23 -6 25 -5 18 12 -15 33
-18 116 -6 155 18 58 54 81 119 76 38 -3 57 0 68 10 8 9 12 18 8 22 -4 3 -9 0
-11 -6 -3 -7 -12 -13 -20 -13 -12 0 -13 3 -4 14 8 10 8 16 -3 25 -10 8 -16 9
-21 1 -4 -6 -2 -9 3 -8 6 2 9 -1 8 -7 0 -5 -5 -9 -9 -7 -5 1 -6 -2 -2 -8 3 -5
1 -10 -4 -10 -6 0 -11 9 -11 19 0 15 -6 19 -25 16 -14 -1 -28 2 -31 6 -8 14
-17 10 -45 -20z m81 -1 c0 -5 -8 -10 -17 -10 -15 0 -16 2 -3 10 19 12 20 12
20 0z"></path>
<path d="M1704 635 c-4 -8 -10 -15 -16 -15 -5 0 -6 5 -3 10 8 13 2 13 -30 -2
-14 -6 -25 -15 -25 -19 0 -5 -12 -15 -27 -23 -16 -8 -23 -15 -16 -16 8 0 9 -9
3 -30 -5 -16 -6 -30 -2 -30 4 0 0 -6 -8 -13 -16 -13 -20 -38 -8 -47 10 -7 -2
-50 -13 -50 -5 0 -9 -4 -9 -9 0 -5 12 -8 27 -5 22 4 24 3 14 -10 -11 -13 -10
-15 8 -11 15 3 18 0 14 -12 -4 -11 -2 -14 8 -11 8 3 12 12 10 19 -3 8 -5 43
-5 79 0 107 44 160 120 145 35 -6 64 2 64 17 0 6 -7 4 -17 -3 -13 -11 -17 -11
-20 -1 -3 6 -9 9 -15 6 -6 -4 -6 1 1 14 9 18 8 19 -11 14 -14 -3 -19 -1 -14 6
4 7 1 12 -9 12 -8 0 -18 -7 -21 -15z"></path>
<path d="M2629 638 c12 -16 11 -18 -9 -18 -13 0 -21 -3 -17 -6 3 -4 -1 -13 -9
-21 -8 -8 -12 -19 -9 -24 4 -5 0 -6 -8 -3 -8 3 -17 -2 -21 -11 -3 -9 -10 -14
-14 -11 -5 3 -9 -1 -9 -9 0 -11 4 -12 14 -4 9 8 13 8 13 1 0 -6 -4 -14 -10
-17 -5 -3 -10 -12 -10 -18 0 -7 4 -6 10 3 5 8 12 11 16 7 9 -8 -15 -39 -26
-32 -4 3 -13 -2 -20 -10 -9 -10 -9 -15 -1 -15 6 0 11 4 11 8 0 4 9 8 20 8 18
0 18 -2 3 -18 -8 -9 -20 -16 -25 -15 -6 1 -13 -4 -15 -11 -4 -11 -1 -12 16 -3
19 11 26 5 19 -15 -2 -4 7 -11 20 -15 27 -10 26 -46 0 -41 -9 1 -19 -2 -23 -8
-6 -10 7 -14 34 -10 13 1 13 -1 2 -14 -12 -14 -11 -16 3 -10 9 3 16 10 16 15
0 4 7 6 15 3 13 -5 13 -2 0 30 -19 46 -19 139 0 176 29 56 87 76 132 45 19
-13 21 -13 26 4 3 13 -1 21 -14 24 -13 3 -17 11 -13 21 3 9 1 16 -5 16 -6 0
-11 -8 -11 -17 0 -13 -3 -14 -12 -5 -8 8 -15 8 -24 1 -9 -7 -14 -4 -19 12 -5
16 -9 18 -15 8 -7 -10 -12 -10 -27 2 -16 13 -17 13 -4 -3z"></path>
<path d="M6021 634 c0 -11 3 -14 6 -6 3 7 2 16 -1 19 -3 4 -6 -2 -5 -13z"></path>
<path d="M6210 639 c0 -5 5 -7 10 -4 6 3 10 8 10 11 0 2 -4 4 -10 4 -5 0 -10
-5 -10 -11z"></path>
<path d="M6266 635 c-3 -8 -1 -15 5 -15 6 0 8 -9 4 -21 -5 -14 -3 -19 3 -15 6
4 8 -2 5 -14 -10 -40 -31 -29 -24 13 2 15 -17 6 -45 -20 -16 -15 -21 -24 -12
-20 12 4 15 2 11 -9 -3 -7 -11 -14 -18 -14 -8 0 -17 -4 -20 -10 -3 -5 0 -7 8
-4 8 3 17 -2 21 -11 5 -13 1 -15 -16 -10 -18 6 -19 5 -7 -8 8 -8 18 -13 22
-10 5 3 4 -4 -2 -16 -7 -11 -17 -21 -24 -21 -8 0 -7 4 3 10 8 5 12 11 9 15 -3
3 -14 -5 -25 -17 -10 -12 -13 -18 -6 -14 8 5 12 0 12 -17 0 -14 -6 -27 -14
-30 -10 -4 -17 9 -25 46 -38 173 -56 218 -86 216 -5 0 -4 -3 3 -6 6 -2 12 -9
12 -14 0 -6 -4 -7 -10 -4 -6 3 -10 -4 -10 -17 0 -18 2 -20 10 -8 8 13 10 13
10 -1 0 -23 -26 -44 -33 -27 -3 7 -6 2 -6 -11 -1 -20 1 -22 14 -11 9 7 19 10
22 6 4 -4 1 -11 -7 -16 -8 -6 -10 -10 -5 -10 6 0 3 -5 -5 -11 -13 -9 -12 -10
3 -5 9 3 25 9 35 12 11 4 9 -1 -8 -16 -14 -12 -18 -20 -9 -17 9 3 22 1 30 -4
8 -5 9 -9 3 -9 -7 0 -14 -9 -17 -21 -3 -12 -10 -18 -16 -14 -6 3 -11 1 -11 -6
0 -6 8 -9 18 -7 21 6 26 -18 9 -40 -7 -9 -6 -11 7 -6 9 3 16 1 16 -5 0 -6 -7
-11 -15 -11 -8 0 -15 -5 -15 -10 0 -7 6 -7 20 0 15 8 18 18 14 43 -4 28 -3 29
6 9 15 -34 37 -55 43 -39 2 6 8 9 12 5 4 -4 0 -19 -10 -34 -16 -25 -16 -27 -1
-21 10 4 15 3 11 -3 -3 -6 -13 -10 -21 -10 -8 0 -14 -5 -14 -11 0 -6 -9 -8
-20 -4 -23 7 -26 -1 -6 -21 8 -8 29 -14 46 -14 36 0 38 3 76 157 26 101 45
139 65 127 12 -7 11 -34 -1 -34 -5 0 -7 8 -4 18 5 14 4 15 -5 2 -8 -12 -3 -21
21 -42 18 -15 29 -30 25 -34 -4 -4 -7 -2 -7 5 0 7 -5 9 -11 5 -6 -3 -15 0 -20
7 -6 10 -9 11 -9 1 0 -7 13 -20 28 -30 16 -9 27 -23 25 -29 -3 -7 0 -13 6 -13
6 0 11 -10 11 -22 0 -17 3 -19 11 -11 13 13 8 42 -32 191 -14 52 -28 86 -39
92 -13 7 -20 6 -24 -5z m38 -81 c3 -8 2 -12 -4 -9 -6 3 -10 10 -10 16 0 14 7
11 14 -7z"></path>
<path d="M6760 635 c-7 -8 -9 -15 -6 -15 4 0 14 7 22 15 9 8 11 15 6 15 -5 0
-15 -7 -22 -15z"></path>
<path d="M205 629 c-4 -6 -5 -12 -2 -15 2 -3 7 2 10 11 7 17 1 20 -8 4z"></path>
<path d="M2765 630 c-3 -5 -1 -10 4 -10 6 0 11 5 11 10 0 6 -2 10 -4 10 -3 0
-8 -4 -11 -10z"></path>
<path d="M5230 620 c-18 -16 -20 -20 -7 -20 10 0 17 -5 17 -11 0 -5 4 -8 8 -5
4 2 12 2 18 -2 14 -11 35 -62 29 -73 -4 -5 -2 -9 4 -9 6 0 7 -8 4 -17 -6 -16
-5 -16 10 -4 10 8 17 9 17 3 0 -6 -8 -16 -17 -22 -15 -9 -14 -10 7 -4 l25 7
-20 -23 c-11 -13 -14 -20 -7 -16 6 4 12 3 12 -3 0 -5 -8 -15 -17 -20 -10 -6
-13 -11 -7 -11 5 0 15 5 22 12 7 7 12 8 12 2 0 -5 -5 -15 -12 -22 -9 -9 -9
-12 0 -12 7 0 12 4 12 8 0 4 9 8 20 9 25 2 26 -12 3 -26 -10 -6 -13 -11 -6
-11 6 0 15 5 18 10 4 6 10 8 15 5 4 -3 10 4 13 15 3 11 0 18 -5 17 -5 -1 -38
51 -72 116 -35 64 -65 119 -68 122 -3 3 -15 -4 -28 -15z m130 -212 c0 -18 -2
-20 -9 -8 -6 8 -7 18 -5 22 9 14 14 9 14 -14z"></path>
<path d="M5853 625 c0 -8 4 -12 9 -9 5 3 6 10 3 15 -9 13 -12 11 -12 -6z"></path>
<path d="M965 613 c2 -10 4 -22 5 -28 0 -5 5 -2 11 8 10 17 5 37 -11 37 -4 0
-7 -8 -5 -17z"></path>
<path d="M2790 622 c0 -4 5 -13 12 -20 8 -8 8 -12 1 -12 -6 0 -13 -10 -16 -21
-6 -21 -5 -21 19 2 13 12 24 17 24 11 0 -7 -4 -12 -10 -12 -5 0 -10 -7 -10
-15 0 -8 5 -15 11 -15 5 0 7 5 4 10 -3 6 -1 10 4 10 14 0 14 -37 1 -45 -5 -3
-15 -16 -21 -28 -12 -22 -12 -22 10 -3 11 11 24 16 27 13 4 -3 -7 -18 -22 -32
l-29 -26 30 18 c23 13 27 14 18 2 -6 -8 -17 -27 -22 -42 -9 -22 -8 -26 2 -21
14 9 -8 -21 -38 -51 -11 -11 -31 -33 -44 -50 -21 -27 -23 -27 -16 -6 5 16 4
21 -4 17 -6 -4 -11 -14 -11 -22 0 -8 -5 -14 -11 -14 -5 0 -7 5 -3 12 5 7 0 9
-14 6 -16 -4 -19 -2 -15 11 3 9 -4 5 -15 -9 -12 -14 -24 -21 -28 -17 -4 4 -2
7 4 7 7 0 12 7 12 15 0 19 -20 19 -46 1 -18 -14 -17 -16 26 -35 82 -37 156
-25 211 36 71 77 65 239 -12 307 -16 14 -29 23 -29 18z"></path>
<path d="M6214 605 c-18 -14 -18 -14 4 -8 12 3 22 9 22 14 0 12 -3 11 -26 -6z"></path>
<path d="M4403 598 c2 -7 -2 -21 -11 -30 -17 -20 -3 -24 18 -5 11 9 11 8 0 -7
-14 -18 -13 -19 3 -13 9 3 17 2 17 -2 0 -5 -7 -12 -16 -15 -22 -8 -26 -8 -19
4 3 6 2 10 -4 10 -5 0 -12 -4 -16 -9 -7 -12 31 -25 45 -16 5 3 10 1 10 -4 0
-6 -8 -11 -17 -11 -15 0 -16 -2 -3 -10 21 -13 19 -42 -5 -62 -11 -10 -15 -17
-8 -18 7 0 10 -7 7 -15 -4 -8 -3 -15 0 -15 4 0 11 10 16 23 7 19 8 17 7 -13
-2 -40 -18 -61 -47 -63 -11 -1 -20 -5 -20 -10 0 -4 -5 -5 -10 -2 -6 3 -13 -1
-16 -9 -3 -9 -10 -16 -16 -16 -5 0 -6 6 -2 13 4 6 -5 1 -19 -12 -15 -14 -27
-19 -27 -13 0 6 5 14 10 17 6 3 10 10 10 16 0 5 -9 0 -20 -11 -24 -24 -49 -28
-30 -5 11 13 10 14 -3 9 -10 -3 -17 1 -20 13 -4 16 -5 16 -6 1 0 -10 -5 -18
-10 -18 -5 0 -6 21 -4 48 7 69 36 92 117 92 34 0 66 3 70 8 4 4 13 7 19 7 5 0
12 7 14 15 4 13 3 13 -6 0 -6 -8 -11 -10 -11 -4 0 6 -10 10 -22 9 -31 -3 -41
4 -29 19 7 8 3 12 -15 14 -13 1 -24 -3 -24 -8 0 -5 8 -6 18 -3 15 6 15 5 2
-11 -13 -17 -15 -17 -31 3 -22 27 -25 26 -42 -5 -9 -17 -17 -23 -21 -15 -4 6
-2 11 3 11 6 0 11 7 11 16 0 12 -8 8 -31 -15 -17 -18 -36 -30 -42 -28 -7 2
-17 -3 -24 -12 -19 -25 -15 -36 5 -18 25 23 39 21 18 -2 -9 -10 -19 -34 -21
-52 -3 -25 -2 -30 5 -19 7 11 10 11 10 2 0 -7 5 -10 10 -7 6 3 10 2 10 -4 0
-5 -5 -11 -11 -13 -15 -5 0 -38 18 -38 8 0 12 -4 8 -10 -3 -5 -13 -7 -23 -4
-14 5 -13 2 3 -11 28 -22 58 -28 108 -21 59 10 109 36 124 66 l13 25 0 -29 c0
-16 -3 -26 -7 -23 -7 8 -33 -11 -33 -25 0 -5 15 -8 33 -6 l32 3 0 140 c-1 115
-4 147 -19 178 -17 34 -44 54 -33 25z m-3 -282 c0 -2 -8 -10 -17 -17 -16 -13
-17 -12 -4 4 13 16 21 21 21 13z"></path>
<path d="M5865 600 c-3 -5 -4 -10 0 -10 3 0 1 -9 -5 -20 -7 -14 -7 -20 0 -20
5 0 10 5 10 11 0 5 5 7 11 3 8 -5 8 -1 0 13 -6 11 -7 23 -4 27 3 3 4 6 0 6 -3
0 -9 -4 -12 -10z"></path>
<path d="M935 589 c-4 -6 -5 -12 -2 -15 2 -3 7 2 10 11 7 17 1 20 -8 4z"></path>
<path d="M1410 592 c0 -5 -10 -14 -22 -20 -21 -9 -20 -10 10 -7 18 2 30 0 26
-6 -3 -5 -10 -6 -16 -3 -7 5 -8 2 -4 -5 5 -7 14 -10 22 -7 15 6 27 -7 16 -18
-4 -4 -7 -23 -7 -42 -1 -21 -8 -39 -20 -49 -19 -16 -19 -16 5 -10 14 4 20 3
14 -2 -13 -9 -48 -83 -45 -96 0 -4 -11 -12 -26 -18 -16 -6 -35 -17 -44 -25
-12 -11 -19 -12 -24 -4 -3 5 -11 8 -16 5 -5 -4 -6 2 -2 12 6 16 5 16 -10 4 -9
-7 -15 -16 -13 -20 3 -4 -4 -8 -15 -8 -13 -1 -17 2 -12 10 12 19 14 49 3 42
-5 -3 -10 -13 -10 -21 0 -8 -5 -14 -11 -14 -6 0 -8 9 -3 23 6 22 6 22 -13 2
-20 -20 -20 -20 10 -42 66 -49 164 -43 220 15 44 45 57 78 58 145 0 57 -12
107 -36 143 -15 24 -35 32 -35 16z m40 -196 c0 -2 -7 -6 -15 -10 -8 -3 -15 -1
-15 4 0 6 7 10 15 10 8 0 15 -2 15 -4z m-20 -36 c0 -5 -5 -10 -11 -10 -5 0 -7
5 -4 10 3 6 8 10 11 10 2 0 4 -4 4 -10z m-50 -64 c0 -2 -7 -7 -16 -10 -8 -3
-12 -2 -9 4 6 10 25 14 25 6z"></path>
<path d="M5080 580 c-6 -11 -7 -20 -2 -20 6 0 12 9 15 20 3 11 3 20 1 20 -2 0
-8 -9 -14 -20z"></path>
<path d="M1800 569 c0 -5 5 -7 10 -4 6 3 10 8 10 11 0 2 -4 4 -10 4 -5 0 -10
-5 -10 -11z"></path>
<path d="M3379 570 c-4 -34 -14 -46 -40 -53 -21 -6 -21 -6 1 15 17 16 19 22 9
29 -16 9 -29 3 -29 -15 0 -8 -9 -16 -20 -19 -15 -4 -20 0 -21 16 0 19 -2 17
-11 -7 -6 -15 -13 -24 -17 -19 -3 4 -19 -5 -36 -21 -16 -16 -22 -24 -12 -17 9
8 17 10 17 6 0 -4 7 -1 17 6 15 13 15 12 5 -7 -6 -12 -7 -26 -1 -35 13 -21 11
-29 -8 -29 -15 0 -16 2 -3 10 8 5 11 10 5 10 -5 -1 -19 -7 -29 -15 -20 -15
-12 -20 21 -16 8 1 10 -5 6 -16 -10 -29 -25 -43 -37 -36 -6 4 -5 -1 3 -11 13
-15 13 -19 0 -27 -11 -7 -9 -10 10 -15 l23 -7 -23 -14 c-13 -8 -16 -12 -7 -9
12 4 15 1 11 -10 -5 -12 1 -15 28 -12 l34 3 3 118 3 117 108 0 c84 0 111 3
121 15 13 16 8 19 -25 15 l-20 -2 20 16 c16 12 17 15 5 16 -9 0 -21 -5 -27
-11 -7 -7 -29 -13 -50 -15 l-38 -3 28 15 c15 8 27 17 27 20 0 2 -8 0 -19 -5
-21 -12 -32 -5 -24 15 3 8 2 14 -1 14 -3 0 -7 -4 -7 -10z m-135 -227 c-1 -32
-30 -45 -30 -14 0 11 3 18 7 15 4 -2 9 3 13 11 8 22 12 18 10 -12z"></path>
<path d="M3705 569 c-4 -6 -5 -12 -2 -15 2 -3 7 2 10 11 7 17 1 20 -8 4z"></path>
<path d="M5220 560 c0 -5 5 -10 10 -10 6 0 10 5 10 10 0 6 -4 10 -10 10 -5 0
-10 -4 -10 -10z"></path>
<path d="M950 550 c0 -5 5 -10 11 -10 5 0 7 5 4 10 -3 6 -8 10 -11 10 -2 0 -4
-4 -4 -10z"></path>
<path d="M5269 548 c-6 -19 -2 -71 6 -76 5 -3 7 -2 3 2 -4 5 -3 19 2 32 6 16
6 24 -1 24 -6 0 -7 5 -4 10 3 6 4 10 1 10 -3 0 -6 -1 -7 -2z"></path>
<path d="M515 530 c-4 -6 -11 -7 -17 -4 -6 4 -8 3 -5 -3 4 -6 -1 -19 -9 -29
-15 -19 -15 -19 -9 1 5 16 4 18 -6 8 -7 -7 -21 -13 -32 -13 -41 0 -8 -25 39
-30 l50 -5 -1 30 c-3 36 5 52 15 35 5 -8 9 -7 13 4 7 18 -27 23 -38 6z"></path>
<path d="M2793 519 c-2 -19 11 -26 21 -10 3 5 0 14 -7 19 -10 8 -13 6 -14 -9z"></path>
<path d="M3207 526 c-4 -10 -1 -13 9 -9 15 6 19 23 5 23 -5 0 -11 -7 -14 -14z"></path>
<path d="M445 519 c-11 -17 1 -21 15 -4 8 9 8 15 2 15 -6 0 -14 -5 -17 -11z"></path>
<path d="M1395 521 c-3 -5 -1 -12 5 -16 5 -3 10 1 10 9 0 18 -6 21 -15 7z"></path>
<path d="M1810 520 c0 -5 5 -10 11 -10 5 0 7 5 4 10 -3 6 -8 10 -11 10 -2 0
-4 -4 -4 -10z"></path>
<path d="M155 510 c-3 -5 -2 -10 4 -10 5 0 13 5 16 10 3 6 2 10 -4 10 -5 0
-13 -4 -16 -10z"></path>
<path d="M415 510 c-3 -5 -1 -10 4 -10 6 0 11 5 11 10 0 6 -2 10 -4 10 -3 0
-8 -4 -11 -10z"></path>
<path d="M698 513 c7 -3 16 -2 19 1 4 3 -2 6 -13 5 -11 0 -14 -3 -6 -6z"></path>
<path d="M2347 513 c-4 -3 -7 -11 -7 -17 0 -6 5 -5 12 2 6 6 9 14 7 17 -3 3
-9 2 -12 -2z"></path>
<path d="M5075 510 c-3 -5 -1 -10 4 -10 6 0 11 5 11 10 0 6 -2 10 -4 10 -3 0
-8 -4 -11 -10z"></path>
<path d="M5403 503 c-3 -10 -8 -22 -11 -28 -3 -5 4 -2 16 9 12 10 19 23 16 27
-8 13 -14 11 -21 -8z"></path>
<path d="M5860 511 c0 -5 9 -7 20 -4 11 3 20 7 20 9 0 2 -9 4 -20 4 -11 0 -20
-4 -20 -9z"></path>
<path d="M1825 490 c-15 -17 -16 -20 -3 -20 9 0 18 9 21 20 3 11 4 20 3 20 -2
0 -11 -9 -21 -20z"></path>
<path d="M5097 474 c-10 -13 -14 -24 -9 -24 13 0 35 27 30 39 -1 5 -11 -2 -21
-15z"></path>
<path d="M5580 495 c0 -5 4 -16 9 -23 6 -11 10 -10 15 4 3 9 4 19 1 22 -3 3
-5 -1 -5 -9 0 -11 -2 -11 -10 1 -5 8 -10 11 -10 5z"></path>
<path d="M5830 490 c-9 -6 -10 -10 -3 -10 6 0 15 5 18 10 8 12 4 12 -15 0z"></path>
<path d="M5705 480 c-19 -8 -19 -9 2 -9 12 -1 25 4 28 9 7 12 -2 12 -30 0z"></path>
<path d="M709 464 c-7 -9 -14 -26 -16 -37 -2 -17 -1 -19 6 -7 6 8 13 11 17 7
4 -3 1 -13 -6 -22 -7 -9 -10 -18 -6 -22 3 -3 6 -1 6 6 0 7 4 10 9 6 19 -11 23
17 6 35 -15 16 -15 22 -5 35 7 8 10 15 7 15 -2 0 -11 -7 -18 -16z"></path>
<path d="M6063 473 c-15 -5 -17 -23 -4 -23 5 0 11 7 15 15 3 8 4 15 3 14 -1 0
-8 -3 -14 -6z"></path>
<path d="M3194 448 l-19 -23 23 19 c12 11 22 21 22 23 0 8 -8 2 -26 -19z"></path>
<path d="M3688 453 c7 -3 16 -2 19 1 4 3 -2 6 -13 5 -11 0 -14 -3 -6 -6z"></path>
<path d="M1830 442 c0 -5 7 -9 15 -9 8 0 12 4 9 9 -3 4 -9 8 -15 8 -5 0 -9 -4
-9 -8z"></path>
<path d="M2375 409 c-4 -6 -5 -12 -2 -15 2 -3 7 2 10 11 7 17 1 20 -8 4z"></path>
<path d="M6305 410 c-3 -5 -1 -10 4 -10 6 0 11 5 11 10 0 6 -2 10 -4 10 -3 0
-8 -4 -11 -10z"></path>
<path d="M2340 396 c0 -9 5 -16 10 -16 6 0 10 4 10 9 0 6 -4 13 -10 16 -5 3
-10 -1 -10 -9z"></path>
<path d="M1126 382 c-2 -4 -1 -14 5 -22 7 -12 9 -10 9 8 0 23 -5 28 -14 14z"></path>
<path d="M6300 379 c0 -5 5 -7 10 -4 6 3 10 8 10 11 0 2 -4 4 -10 4 -5 0 -10
-5 -10 -11z"></path>
<path d="M2530 369 c0 -4 11 -6 25 -6 14 0 25 3 25 8 0 5 -11 8 -25 7 -14 -1
-25 -5 -25 -9z"></path>
<path d="M937 355 c-4 -8 -3 -16 1 -19 4 -3 9 4 9 15 2 23 -3 25 -10 4z"></path>
<path d="M4331 344 c-12 -14 -11 -16 4 -12 10 1 20 9 23 16 5 17 -10 15 -27
-4z"></path>
<path d="M1583 335 c0 -8 4 -12 9 -9 5 3 6 10 3 15 -9 13 -12 11 -12 -6z"></path>
<path d="M4003 343 c-7 -2 -13 -11 -13 -19 0 -12 -6 -16 -26 -13 -3 0 -14 -10
-25 -22 -13 -15 -19 -17 -19 -8 -1 10 -6 8 -16 -6 -16 -20 -16 -20 -10 2 8 24
-4 25 -41 5 -18 -10 -23 -10 -23 -1 0 7 -3 10 -6 6 -12 -11 -34 21 -27 40 5
14 1 13 -20 -6 -15 -13 -24 -28 -20 -34 3 -5 8 -4 13 3 5 8 9 5 12 -8 11 -40
150 -54 232 -22 22 8 27 15 24 37 -3 30 -28 44 -29 16 0 -11 -3 -13 -6 -5 -3
7 1 19 7 27 13 16 12 16 -7 8z"></path>
<path d="M1767 333 c-4 -3 -7 -11 -7 -17 0 -6 5 -5 12 2 6 6 9 14 7 17 -3 3
-9 2 -12 -2z"></path>
<path d="M4580 331 c0 -6 4 -13 10 -16 6 -3 7 1 4 9 -7 18 -14 21 -14 7z"></path>
<path d="M5340 330 c0 -5 7 -7 15 -4 8 4 15 8 15 10 0 2 -7 4 -15 4 -8 0 -15
-4 -15 -10z"></path>
<path d="M5706 313 c-6 -14 -5 -15 5 -6 7 7 10 15 7 18 -3 3 -9 -2 -12 -12z"></path>
<path d="M4142 311 c4 -13 18 -16 19 -4 0 4 -5 9 -11 12 -7 2 -11 -2 -8 -8z"></path>
<path d="M6080 314 c0 -2 9 -8 20 -14 15 -8 18 -8 14 3 -4 11 -34 21 -34 11z"></path>
<path d="M6658 303 c7 -3 16 -2 19 1 4 3 -2 6 -13 5 -11 0 -14 -3 -6 -6z"></path>
</g>
</svg>